<svg xmlns="http://www.w3.org/2000/svg" viewBox="0 0 100 100">
  <defs>
    <linearGradient id="grad1" x1="0%" y1="0%" x2="100%" y2="100%">
      <stop offset="0%" style="stop-color:#d8b4fe;stop-opacity:1" />
      <stop offset="100%" style="stop-color:#a855f7;stop-opacity:1" />
    </linearGradient>
  </defs>
  <!-- Shield Background -->
  <path d="M 50 5 L 90 20 L 90 50 C 90 75 70 90 50 95 C 30 90 10 75 10 50 L 10 20 Z" fill="url(#grad1)" stroke="#ffffff" stroke-width="2"/>
  <!-- Location Pin Inner -->
  <path d="M 50 25 C 41.7 25 35 31.7 35 40 C 35 52.5 50 70 50 70 C 50 70 65 52.5 65 40 C 65 31.7 58.3 25 50 25 Z M 50 47 C 46.1 47 43 43.9 43 40 C 43 36.1 46.1 33 50 33 C 53.9 33 57 36.1 57 40 C 57 43.9 53.9 47 50 47 Z" fill="#ffffff"/>
</svg>
